<svg xmlns="http://www.w3.org/2000/svg" width="465.049" height="465.049" viewBox="0 0 465.049 465.049">
  <g id="Group_39793" data-name="Group 39793" transform="translate(-7036 -3541)" style="isolation: isolate">
    <g id="Group_3" data-name="Group 3" transform="translate(7036 3541)">
      <path id="Path_12" data-name="Path 12" d="M516.85,498.646c-128.214,0-232.522,104.308-232.522,232.522S388.636,963.695,516.85,963.695,749.377,859.382,749.377,731.168,645.065,498.646,516.85,498.646Zm0,430.124c-108.957,0-197.6-88.642-197.6-197.6s88.64-197.6,197.6-197.6,197.6,88.641,197.6,197.6S625.811,928.77,516.85,928.77Z" transform="translate(-284.328 -498.646)" fill="#2150ff"/>
      <path id="Path_13" data-name="Path 13" d="M466,652.139H334.175a121.227,121.227,0,0,1,10.6-35.063h162.4V558.8a123.123,123.123,0,0,1,58.556,58.271h37.8C581.867,556.1,523.607,512.3,455.284,512.3c-86.735,0-157.3,70.567-157.3,157.3a158.96,158.96,0,0,0,.991,17.464H576.4A121.329,121.329,0,0,1,565.479,722.8H402.042v56.972A123.126,123.126,0,0,1,345.121,722.8H307.265c21.859,60.635,79.954,104.1,148.019,104.1,86.739,0,157.306-70.561,157.306-157.3a159.091,159.091,0,0,0-.991-17.463H466ZM455.284,547.227a123.337,123.337,0,0,1,16.972,1.2v33.724H369.794A121.965,121.965,0,0,1,455.284,547.227Zm0,244.757a122.23,122.23,0,0,1-18.317-1.379V757.729h103.1A121.918,121.918,0,0,1,455.284,791.984Z" transform="translate(-222.762 -437.079)" fill="#2150ff"/>
    </g>
  </g>
</svg>
