<svg xmlns="http://www.w3.org/2000/svg" width="276.106" height="44.222" viewBox="0 0 276.106 44.222">
  <g id="Group_8" data-name="Group 8" transform="translate(-217.922 -88.95)">
    <g id="Logo" transform="translate(217.922 88.95)">
      <g id="Group_2" data-name="Group 2" transform="translate(52.545 5.664)">
        <g id="Group_1" data-name="Group 1" transform="translate(0 0)">
          <path id="Path_1" data-name="Path 1" d="M384.638,537.048l8.606-23.567h5.891l8.605,23.567h-5.106l-5.392-16.033-1.071-3.571H396.1l-1,3.5-5.427,16.1Zm5.071-5.749v-3.642h12.926V531.3Z" transform="translate(-384.638 -511.374)" fill="#001233"/>
          <path id="Path_2" data-name="Path 2" d="M438.47,542.6a7.743,7.743,0,0,1-3.213-.643,4.962,4.962,0,0,1-2.268-2.053,7.09,7.09,0,0,1-.839-3.66V524.387h4.892v10.677a3.858,3.858,0,0,0,.857,2.875,3.47,3.47,0,0,0,2.464.8,4.135,4.135,0,0,0,1.464-.268,3.419,3.419,0,0,0,1.268-.839,4.011,4.011,0,0,0,.875-1.482,6.5,6.5,0,0,0,.322-2.16v-9.605h4.891v17.854h-4.356l-.179-3.107a5.836,5.836,0,0,1-2.446,2.625A7.756,7.756,0,0,1,438.47,542.6Z" transform="translate(-407.262 -516.567)" fill="#001233"/>
          <path id="Path_3" data-name="Path 3" d="M483.122,519.421v3.642h-13.89v-3.642Zm-5.713-5.463v17.5a2.39,2.39,0,0,0,.661,1.874,2.609,2.609,0,0,0,1.8.589,4.258,4.258,0,0,0,1.571-.268,4.178,4.178,0,0,0,1.214-.732l.786,3.25a6.46,6.46,0,0,1-2.142,1.071,9.256,9.256,0,0,1-2.714.392,8.658,8.658,0,0,1-3.16-.535,4.381,4.381,0,0,1-2.142-1.714,5.682,5.682,0,0,1-.767-3.142V515.315Z" transform="translate(-424.92 -511.601)" fill="#001233"/>
          <path id="Path_4" data-name="Path 4" d="M507.617,523.706a9.9,9.9,0,0,1,4.767,1.107,7.946,7.946,0,0,1,3.214,3.178,11.306,11.306,0,0,1,0,9.98,7.909,7.909,0,0,1-3.214,3.2,10.78,10.78,0,0,1-9.516,0,7.876,7.876,0,0,1-3.231-3.2,11.31,11.31,0,0,1,0-9.98,7.912,7.912,0,0,1,3.231-3.178A9.924,9.924,0,0,1,507.617,523.706Zm0,3.642a4.088,4.088,0,0,0-2.3.625,3.9,3.9,0,0,0-1.446,1.874,10.13,10.13,0,0,0,0,6.285,3.9,3.9,0,0,0,1.446,1.874,4.084,4.084,0,0,0,2.3.625,4.02,4.02,0,0,0,2.268-.625,3.9,3.9,0,0,0,1.446-1.874,10.12,10.12,0,0,0,0-6.285,3.9,3.9,0,0,0-1.446-1.874A4.025,4.025,0,0,0,507.617,527.348Z" transform="translate(-438.845 -516.243)" fill="#001233"/>
          <path id="Path_5" data-name="Path 5" d="M546.92,512.8a13.487,13.487,0,0,1,5.642,1.107,11.054,11.054,0,0,1,4.142,3.285l-2.75,3.178a9.7,9.7,0,0,0-3.2-2.732,8.8,8.8,0,0,0-4.017-.875,6.746,6.746,0,0,0-2.481.392,3.058,3.058,0,0,0-1.428,1.036,2.446,2.446,0,0,0-.446,1.428,2.083,2.083,0,0,0,.75,1.625,6.1,6.1,0,0,0,2.571,1.089l4.392,1a10.016,10.016,0,0,1,5.017,2.339,5.506,5.506,0,0,1,1.518,4.017,6.564,6.564,0,0,1-1.214,3.982,7.577,7.577,0,0,1-3.392,2.535,13.34,13.34,0,0,1-5,.875,16.332,16.332,0,0,1-4.517-.589,13.648,13.648,0,0,1-3.66-1.625,10.847,10.847,0,0,1-2.678-2.392l2.785-3.32a9.155,9.155,0,0,0,2.035,2.035,9.931,9.931,0,0,0,2.767,1.41,10.249,10.249,0,0,0,3.268.518,7.892,7.892,0,0,0,2.481-.339,3.283,3.283,0,0,0,1.536-.964,2.3,2.3,0,0,0,.518-1.518,2.233,2.233,0,0,0-.625-1.589,4.478,4.478,0,0,0-2.3-1.017l-4.785-1.071a14.7,14.7,0,0,1-3.553-1.3,5.419,5.419,0,0,1-3.017-5.088,6.569,6.569,0,0,1,1.143-3.785,7.75,7.75,0,0,1,3.3-2.66A12.486,12.486,0,0,1,546.92,512.8Z" transform="translate(-456.795 -511.049)" fill="#001233"/>
          <path id="Path_6" data-name="Path 6" d="M581.5,535.133V509.459h4.892v10.855a5.788,5.788,0,0,1,2.357-2.553,6.823,6.823,0,0,1,3.392-.839,7.373,7.373,0,0,1,3.3.714,5.332,5.332,0,0,1,2.285,2.16,7.134,7.134,0,0,1,.84,3.624v11.712h-4.892V524.849a4.441,4.441,0,0,0-.893-3.2,3.129,3.129,0,0,0-2.285-.875,4.31,4.31,0,0,0-1.982.482,3.633,3.633,0,0,0-1.536,1.571,6.048,6.048,0,0,0-.589,2.875v9.427Z" transform="translate(-478.381 -509.459)" fill="#001233"/>
          <path id="Path_7" data-name="Path 7" d="M629.225,523.706a9.9,9.9,0,0,1,4.767,1.107,7.946,7.946,0,0,1,3.214,3.178,11.311,11.311,0,0,1,0,9.98,7.909,7.909,0,0,1-3.214,3.2,10.78,10.78,0,0,1-9.516,0,7.877,7.877,0,0,1-3.231-3.2,11.306,11.306,0,0,1,0-9.98,7.913,7.913,0,0,1,3.231-3.178A9.922,9.922,0,0,1,629.225,523.706Zm0,3.642a4.086,4.086,0,0,0-2.3.625,3.893,3.893,0,0,0-1.446,1.874,10.129,10.129,0,0,0,0,6.285,3.889,3.889,0,0,0,1.446,1.874,4.082,4.082,0,0,0,2.3.625,4.019,4.019,0,0,0,2.267-.625,3.9,3.9,0,0,0,1.446-1.874,10.131,10.131,0,0,0,0-6.285,3.9,3.9,0,0,0-1.446-1.874A4.023,4.023,0,0,0,629.225,527.348Z" transform="translate(-496.752 -516.243)" fill="#001233"/>
          <path id="Path_8" data-name="Path 8" d="M661.12,549.415V524.063h4.392l.321,5.678-.607-.643a7.149,7.149,0,0,1,1.2-2.785,6.193,6.193,0,0,1,2.232-1.91,6.547,6.547,0,0,1,3.035-.7,7.022,7.022,0,0,1,3.892,1.107,7.511,7.511,0,0,1,2.7,3.16,13.1,13.1,0,0,1-.018,10,7.538,7.538,0,0,1-2.731,3.2,7.169,7.169,0,0,1-3.946,1.107,5.823,5.823,0,0,1-3.91-1.321,6.658,6.658,0,0,1-2.125-3.32l.464-.75v12.533Zm9.034-10.891a3.734,3.734,0,0,0,3.089-1.411,6.5,6.5,0,0,0,1.125-4.124,6.658,6.658,0,0,0-1.089-4.124,3.637,3.637,0,0,0-3.053-1.411,3.741,3.741,0,0,0-2.2.661,4.352,4.352,0,0,0-1.482,1.893,7.457,7.457,0,0,0-.536,2.982,7.962,7.962,0,0,0,.5,2.964,4.119,4.119,0,0,0,1.446,1.91A3.738,3.738,0,0,0,670.154,538.524Z" transform="translate(-516.293 -516.243)" fill="#001233"/>
          <path id="Path_9" data-name="Path 9" d="M712.593,513.481a10.8,10.8,0,0,1,4.642.91A6.866,6.866,0,0,1,720.217,517a8.461,8.461,0,0,1,0,8.177,6.86,6.86,0,0,1-2.982,2.607,10.8,10.8,0,0,1-4.642.911H707.63v8.355H702.7V513.481Zm-.75,11.319a5,5,0,0,0,3.32-.947,4.034,4.034,0,0,0,0-5.553,5.072,5.072,0,0,0-3.32-.928H707.63V524.8Z" transform="translate(-536.093 -511.374)" fill="#001233"/>
          <path id="Path_10" data-name="Path 10" d="M753.379,530.526a3.2,3.2,0,0,0-.875-2.393,3.152,3.152,0,0,0-2.3-.857,4.033,4.033,0,0,0-2.321.679,3.936,3.936,0,0,0-1.464,2.249l-4.178-1.285a6.449,6.449,0,0,1,2.661-3.785,9.5,9.5,0,0,1,5.517-1.428,10.593,10.593,0,0,1,4.106.732,5.977,5.977,0,0,1,2.731,2.2,6.464,6.464,0,0,1,.982,3.678v7.248q0,1.358,1.285,1.357a3.577,3.577,0,0,0,1.142-.179l-.285,3.035a5.175,5.175,0,0,1-2.321.464,5.647,5.647,0,0,1-2.249-.428,3.449,3.449,0,0,1-1.571-1.3,3.937,3.937,0,0,1-.571-2.2v-.143l.857-.142a4.021,4.021,0,0,1-1.179,2.3A6.416,6.416,0,0,1,751,541.774a8.248,8.248,0,0,1-2.839.5,8.108,8.108,0,0,1-3.142-.553,4.418,4.418,0,0,1-2.035-1.625,4.653,4.653,0,0,1-.714-2.642,4.389,4.389,0,0,1,1.286-3.267,7,7,0,0,1,3.678-1.732l6.713-1.357-.036,3.036-4.285.856a5.416,5.416,0,0,0-1.839.661,1.483,1.483,0,0,0-.625,1.339,1.552,1.552,0,0,0,.661,1.357,2.69,2.69,0,0,0,1.589.464,6,6,0,0,0,1.464-.179,3.922,3.922,0,0,0,1.285-.571,2.642,2.642,0,0,0,.893-1.071,3.814,3.814,0,0,0,.321-1.643Z" transform="translate(-554.919 -516.243)" fill="#001233"/>
          <path id="Path_11" data-name="Path 11" d="M793.8,524.387l-7.213,18.961a14.9,14.9,0,0,1-1.91,3.856,6.414,6.414,0,0,1-2.428,2.071,7.657,7.657,0,0,1-3.267.643,9.083,9.083,0,0,1-2.553-.339,8.048,8.048,0,0,1-2.018-.875l1.036-3.535a4.4,4.4,0,0,0,1.428.768,5.8,5.8,0,0,0,1.714.232,3.372,3.372,0,0,0,1.732-.428,3.27,3.27,0,0,0,1.232-1.714l.607-1.535-1.964-4.642-5.463-13.462h5.427l3.392,10.712.928,3.571,1.107-3.785,3.249-10.5Z" transform="translate(-570.24 -516.567)" fill="#001233"/>
        </g>
      </g>
      <g id="Group_3" data-name="Group 3">
        <path id="Path_12" data-name="Path 12" d="M306.439,498.646a22.111,22.111,0,1,0,22.111,22.111A22.135,22.135,0,0,0,306.439,498.646Zm0,40.9a18.79,18.79,0,1,1,18.79-18.79A18.811,18.811,0,0,1,306.439,539.547Z" transform="translate(-284.328 -498.646)" fill="#0036ff"/>
        <path id="Path_13" data-name="Path 13" d="M313.96,525.6H301.424a11.523,11.523,0,0,1,1.008-3.334h15.443v-5.541a11.707,11.707,0,0,1,5.568,5.541h3.594a14.954,14.954,0,0,0-28.961,6.655h26.38a11.538,11.538,0,0,1-1.038,3.4H307.878v5.417a11.708,11.708,0,0,1-5.413-5.417h-3.6A14.955,14.955,0,0,0,327.8,525.6H313.96Zm-1.019-9.976a11.722,11.722,0,0,1,1.614.114v3.207h-9.743A11.6,11.6,0,0,1,312.941,515.622Zm0,23.274a11.642,11.642,0,0,1-1.742-.131v-3.126H321A11.593,11.593,0,0,1,312.941,538.9Z" transform="translate(-290.83 -505.148)" fill="#0036ff"/>
      </g>
    </g>
  </g>
</svg>
