<svg xmlns="http://www.w3.org/2000/svg" viewBox="0 0 276.1 44.2"><defs><style>.e462b4ca-5643-4fed-a459-776e6835b6fa{fill:#fff;}</style></defs><g id="a1ea770e-ff1d-49b1-b25c-232038acdae9" data-name="Layer 2"><g id="bf973817-c6f1-4c25-8233-5945dda64581" data-name="Layer 1"><g id="b93027be-ed25-4416-9c4f-0db6d651f4d9" data-name="Group 8"><g id="a588b7b2-4f3f-41ee-88d5-6dbb0331234b" data-name="Logo"><g id="e45aea88-082d-4469-96c8-0ddd51959def" data-name="Group 2"><g id="a87169ab-cf2f-4e79-b94f-c55a52cf0fc5" data-name="Group 1"><path id="a7ceff83-239f-447b-ba66-8912e029746d" data-name="Path 1" class="e462b4ca-5643-4fed-a459-776e6835b6fa" d="M52.5,31.3,61.2,7.8H67l8.6,23.5H70.5l-5.4-16-1-3.6H64l-1,3.5L57.6,31.3Zm5.1-5.7V21.9H70.5v3.7Z"/><path id="ec4511f3-a703-443a-87a9-547017b2aa28" data-name="Path 2" class="e462b4ca-5643-4fed-a459-776e6835b6fa" d="M83.8,31.7a9.2,9.2,0,0,1-3.3-.6A5.6,5.6,0,0,1,78.3,29a7.8,7.8,0,0,1-.9-3.7V13.5h4.9V24.2a3.7,3.7,0,0,0,.9,2.8,3.2,3.2,0,0,0,2.4.8l1.5-.2a3.8,3.8,0,0,0,1.3-.9,3.8,3.8,0,0,0,.9-1.5,7.1,7.1,0,0,0,.3-2.1V13.5h4.9V31.3H90.1l-.2-3.1a5.7,5.7,0,0,1-2.4,2.7A9.9,9.9,0,0,1,83.8,31.7Z"/><path id="a036ff71-2361-4100-b71d-fc0941656c89" data-name="Path 3" class="e462b4ca-5643-4fed-a459-776e6835b6fa" d="M110.7,13.5v3.6H96.9V13.5ZM105,8V25.5a2.6,2.6,0,0,0,.7,1.9,2.8,2.8,0,0,0,1.8.6,4.5,4.5,0,0,0,1.6-.3l1.2-.7.8,3.2a6.5,6.5,0,0,1-2.2,1.1,8.4,8.4,0,0,1-2.7.4,10.6,10.6,0,0,1-3.1-.5,4.9,4.9,0,0,1-2.2-1.8,6.5,6.5,0,0,1-.8-3.1V9.4Z"/><path id="bec31c9a-31c8-4bf5-a27e-0796bd353cb3" data-name="Path 4" class="e462b4ca-5643-4fed-a459-776e6835b6fa" d="M121.3,13.1a11.3,11.3,0,0,1,4.8,1.1,8.9,8.9,0,0,1,3.2,3.2,11.7,11.7,0,0,1,0,10,8.2,8.2,0,0,1-3.2,3.2,10.6,10.6,0,0,1-9.5,0,7.8,7.8,0,0,1-3.3-3.2,11.7,11.7,0,0,1,0-10,9.2,9.2,0,0,1,3.3-3.2A10.8,10.8,0,0,1,121.3,13.1Zm0,3.7a3.5,3.5,0,0,0-3.7,2.5,9.7,9.7,0,0,0,0,6.3,3.6,3.6,0,0,0,1.4,1.8,4.1,4.1,0,0,0,4.6,0,3.6,3.6,0,0,0,1.4-1.8,9.7,9.7,0,0,0,0-6.3,3.5,3.5,0,0,0-3.7-2.5Z"/><path id="bcb9e1c7-4413-468b-a7e0-1bab3422fd7e" data-name="Path 5" class="e462b4ca-5643-4fed-a459-776e6835b6fa" d="M142.7,7.4a15.5,15.5,0,0,1,5.6,1.1,12.3,12.3,0,0,1,4.2,3.3L149.7,15a8.4,8.4,0,0,0-3.2-2.7,8.8,8.8,0,0,0-6.5-.5,2.4,2.4,0,0,0-1.4,1,2.4,2.4,0,0,0-.5,1.4,2.1,2.1,0,0,0,.8,1.7,5.5,5.5,0,0,0,2.6,1l4.3,1a10.9,10.9,0,0,1,5.1,2.4,5.9,5.9,0,0,1,1.5,4,7.2,7.2,0,0,1-1.2,4,8.4,8.4,0,0,1-3.4,2.5,14.3,14.3,0,0,1-5,.9,16.3,16.3,0,0,1-4.5-.6,15.3,15.3,0,0,1-3.7-1.6,15.5,15.5,0,0,1-2.7-2.4l2.8-3.3a12.6,12.6,0,0,0,2,2,10.5,10.5,0,0,0,2.8,1.4,9.5,9.5,0,0,0,3.3.5,7.2,7.2,0,0,0,2.5-.3,3.6,3.6,0,0,0,1.5-1,2.5,2.5,0,0,0,.5-1.5,2.3,2.3,0,0,0-.6-1.6,5.2,5.2,0,0,0-2.3-1l-4.8-1.1a13,13,0,0,1-3.6-1.3,5.3,5.3,0,0,1-3-5.1,6.3,6.3,0,0,1,1.2-3.7,7.3,7.3,0,0,1,3.3-2.7A13,13,0,0,1,142.7,7.4Z"/><path id="f2b7cdf7-8e2b-4a44-b817-1419bffc09c4" data-name="Path 6" class="e462b4ca-5643-4fed-a459-776e6835b6fa" d="M155.7,31.3V5.7h4.9V16.5a5.6,5.6,0,0,1,2.3-2.5,6.9,6.9,0,0,1,3.4-.9,9.3,9.3,0,0,1,3.3.7,5.4,5.4,0,0,1,2.3,2.2,6.6,6.6,0,0,1,.8,3.6V31.3h-4.9V21.1a4.1,4.1,0,0,0-.9-3.2,2.7,2.7,0,0,0-2.2-.9,3.5,3.5,0,0,0-2,.5,3.9,3.9,0,0,0-1.6,1.5,5.8,5.8,0,0,0-.5,2.9v9.4Z"/><path id="b1d4734d-8627-4062-aa0e-ee12d06e45ad" data-name="Path 7" class="e462b4ca-5643-4fed-a459-776e6835b6fa" d="M185,13.1a11.3,11.3,0,0,1,4.8,1.1,8.9,8.9,0,0,1,3.2,3.2,11.7,11.7,0,0,1,0,10,8.2,8.2,0,0,1-3.2,3.2,10.6,10.6,0,0,1-9.5,0,7.8,7.8,0,0,1-3.3-3.2,11.7,11.7,0,0,1,0-10,9.2,9.2,0,0,1,3.3-3.2A10.8,10.8,0,0,1,185,13.1Zm0,3.7a3.5,3.5,0,0,0-3.7,2.5,9.7,9.7,0,0,0,0,6.3,3.6,3.6,0,0,0,1.4,1.8,4.1,4.1,0,0,0,4.6,0,3.6,3.6,0,0,0,1.4-1.8,9.7,9.7,0,0,0,0-6.3,3.5,3.5,0,0,0-3.7-2.5Z"/><path id="b655272f-036e-40d4-95de-255c50128939" data-name="Path 8" class="e462b4ca-5643-4fed-a459-776e6835b6fa" d="M197.4,38.8V13.5h4.4l.3,5.7-.6-.7a7.7,7.7,0,0,1,1.2-2.8,6.7,6.7,0,0,1,2.2-1.9,6.6,6.6,0,0,1,3-.7,7.4,7.4,0,0,1,3.9,1.1,7,7,0,0,1,2.7,3.2,12.9,12.9,0,0,1,0,10,7.6,7.6,0,0,1-2.7,3.2,8,8,0,0,1-4,1.1,6.1,6.1,0,0,1-3.9-1.3,7.2,7.2,0,0,1-2.1-3.3l.5-.8V38.8Zm9-10.9a3.4,3.4,0,0,0,3.1-1.4,6.5,6.5,0,0,0,1.1-4.1,6.7,6.7,0,0,0-1.1-4.1,3.3,3.3,0,0,0-3-1.4,4,4,0,0,0-2.2.6,4.5,4.5,0,0,0-1.5,1.9,6.3,6.3,0,0,0-.5,3,6.3,6.3,0,0,0,.5,3,3.7,3.7,0,0,0,1.4,1.9A3.5,3.5,0,0,0,206.4,27.9Z"/><path id="e59c94e3-d341-4bea-b88c-a6781936dbea" data-name="Path 9" class="e462b4ca-5643-4fed-a459-776e6835b6fa" d="M229,7.8a9.6,9.6,0,0,1,4.7.9,6.3,6.3,0,0,1,3,2.6,8.5,8.5,0,0,1,0,8.2,7.6,7.6,0,0,1-3,2.6,12.7,12.7,0,0,1-4.7.9h-4.9v8.3h-4.9V7.8Zm-.7,11.3a4.8,4.8,0,0,0,3.3-1,3.9,3.9,0,0,0,0-5.5,4.7,4.7,0,0,0-3.3-.9h-4.2v7.4Z"/><path id="fd510bb4-b2d4-4953-87f2-1c066e91608f" data-name="Path 10" class="e462b4ca-5643-4fed-a459-776e6835b6fa" d="M251,19.9a2.9,2.9,0,0,0-.9-2.3,3.2,3.2,0,0,0-2.3-.9,3.9,3.9,0,0,0-2.3.7,4.4,4.4,0,0,0-1.5,2.2l-4.1-1.3a6.2,6.2,0,0,1,2.6-3.7,9.2,9.2,0,0,1,5.5-1.5,10.4,10.4,0,0,1,4.2.8,5.8,5.8,0,0,1,2.7,2.2,6.5,6.5,0,0,1,1,3.6V27c0,.9.4,1.3,1.2,1.3h1.2l-.3,3a5.5,5.5,0,0,1-4.6,0,2.7,2.7,0,0,1-1.5-1.3,4,4,0,0,1-.6-2.2h0l.9-.2a4.6,4.6,0,0,1-1.2,2.3,6.1,6.1,0,0,1-2.4,1.5,8.5,8.5,0,0,1-6-.1,3.9,3.9,0,0,1-2-1.6,4.8,4.8,0,0,1-.7-2.6,4.6,4.6,0,0,1,1.3-3.3,7,7,0,0,1,3.7-1.7l6.7-1.4v3.1l-4.2.8a4.4,4.4,0,0,0-1.9.7,1.4,1.4,0,0,0-.6,1.3,1.8,1.8,0,0,0,.6,1.4,3.2,3.2,0,0,0,1.6.4h1.5l1.3-.6a3.1,3.1,0,0,0,.9-1.1,4.5,4.5,0,0,0,.3-1.6Z"/><path id="bff64e1d-7f92-42b9-b188-76b0927e0403" data-name="Path 11" class="e462b4ca-5643-4fed-a459-776e6835b6fa" d="M276.1,13.5l-7.2,18.9a17.6,17.6,0,0,1-1.9,3.9,6.9,6.9,0,0,1-2.4,2.1,9.6,9.6,0,0,1-3.3.6,11.5,11.5,0,0,1-2.6-.3,7.2,7.2,0,0,1-2-.9l1.1-3.5a3.7,3.7,0,0,0,1.4.7,4.7,4.7,0,0,0,1.7.3,3.4,3.4,0,0,0,1.7-.5,3.7,3.7,0,0,0,1.3-1.7l.6-1.5-2-4.7L257,13.5h5.5l3.4,10.7.9,3.6,1.1-3.8,3.2-10.5Z"/></g></g><g id="a5b5a542-c6fd-410b-aba8-6cf10018048c" data-name="Group 3"><path id="b9277dcc-db91-4197-8345-cd5f11c63bc3" data-name="Path 12" class="e462b4ca-5643-4fed-a459-776e6835b6fa" d="M22.1,0A22.1,22.1,0,1,0,44.2,22.1,22.1,22.1,0,0,0,22.1,0Zm0,40.9A18.8,18.8,0,1,1,40.9,22.1h0A18.8,18.8,0,0,1,22.1,40.9Z"/><path id="b0f15551-b249-434d-ab4f-542c214b3685" data-name="Path 13" class="e462b4ca-5643-4fed-a459-776e6835b6fa" d="M23.1,20.5H10.6a13.3,13.3,0,0,1,1-3.4H27V11.6a11.1,11.1,0,0,1,5.6,5.5h3.6A14.9,14.9,0,0,0,17.1,8,15.2,15.2,0,0,0,7.2,23.8H33.6a10.2,10.2,0,0,1-1,3.4H17v5.4a12.8,12.8,0,0,1-5.4-5.4H8a15,15,0,0,0,29-6.7Zm-1-10h1.6v3.2H14a11.8,11.8,0,0,1,8.1-3.3Zm0,23.2H20.4V30.5h9.8a11.8,11.8,0,0,1-8.1,3.3Z"/></g></g></g></g></g></svg>