<svg xmlns="http://www.w3.org/2000/svg" viewBox="0 0 487.8 487.8"><defs><style>.a2b3d55f-b131-4a23-94d5-cd1c0d6c71f2{fill:#0036ff;}.bce122dd-debf-4311-8d3b-128d471d5785{fill:#fff;}</style></defs><g id="a31e94c5-05dc-4699-997a-00bf60421dae" data-name="Layer 2"><g id="f72b77f1-8d1b-4008-a231-0bbeaaf0087e" data-name="Layer 1"><circle class="a2b3d55f-b131-4a23-94d5-cd1c0d6c71f2" cx="243.9" cy="243.9" r="243.9"/><path id="fc0f4973-7696-4d25-b2b4-ce32643197dd" data-name="Path 12" class="bce122dd-debf-4311-8d3b-128d471d5785" d="M243.9,31.8c-117.1,0-212.1,95-212.1,212.1S126.8,456,243.9,456,456,361,456,243.9,361,32,243.9,31.8Zm0,392.3c-99.5,0-180.2-80.7-180.2-180.2S144.4,63.7,243.9,63.7s180.2,80.7,180.2,180.2h0A180.4,180.4,0,0,1,243.9,424.1Z"/><path id="fbc773af-78df-4feb-a257-eb6242f0be0b" data-name="Path 13" class="bce122dd-debf-4311-8d3b-128d471d5785" d="M253.7,228H133.4a111.8,111.8,0,0,1,9.7-32H291.2V142.9A111.9,111.9,0,0,1,344.6,196h34.5a143.4,143.4,0,0,0-277.8,63.8h253a109.6,109.6,0,0,1-9.9,32.7H195.3v51.9a112.5,112.5,0,0,1-51.9-51.9H108.9A143.4,143.4,0,0,0,386.4,228Zm-9.8-95.7a114.2,114.2,0,0,1,15.5,1.1v30.8H165.9a111,111,0,0,1,78-31.9Zm0,223.2a116.2,116.2,0,0,1-16.7-1.2v-30h94a111.4,111.4,0,0,1-77.3,31.2Z"/></g></g></svg>